<svg width="2048" height="2048" viewBox="0 0 2048 2048" fill="none" xmlns="http://www.w3.org/2000/svg">
<g clip-path="url(#clip0)">
<path fill-rule="evenodd" clip-rule="evenodd" d="M629.819 379.737C655.749 396.168 663.457 430.49 647.042 456.395C630.626 482.301 596.299 489.986 570.369 473.555C560.311 467.181 546.994 470.163 540.624 480.214C534.255 490.266 537.246 503.581 547.304 509.954C593.348 539.131 654.31 525.488 683.466 479.476C712.622 433.465 698.927 372.514 652.884 343.338L405.357 186.489C395.299 180.115 381.982 183.096 375.613 193.148C369.243 203.199 372.234 216.514 382.292 222.888L629.819 379.737Z" fill="#62D0B5"/>
<path fill-rule="evenodd" clip-rule="evenodd" d="M523.239 533.505C497.295 517.065 489.575 482.736 505.99 456.83C522.406 430.925 556.744 423.247 582.689 439.687C592.753 446.064 606.074 443.085 612.443 433.034C618.813 422.983 615.818 409.665 605.754 403.287C559.685 374.095 498.702 387.725 469.546 433.737C440.39 479.748 454.105 540.712 500.174 569.904L747.836 726.839C757.9 733.216 771.222 730.238 777.591 720.186C783.96 710.135 780.965 696.817 770.901 690.44L523.239 533.505Z" fill="#ED5861"/>
<path fill-rule="evenodd" clip-rule="evenodd" d="M223.964 213.991C198.02 197.551 163.681 205.229 147.266 231.134C130.851 257.04 138.57 291.369 164.515 307.809C174.579 314.186 177.574 327.504 171.205 337.555C164.835 347.607 151.514 350.585 141.45 344.208C95.3811 315.016 81.6656 254.052 110.822 208.041C139.978 162.029 200.961 148.399 247.029 177.592L494.691 334.527C504.755 340.904 507.75 354.222 501.381 364.273C495.012 374.325 481.69 377.303 471.626 370.926L223.964 213.991Z" fill="#F2F2F4"/>
<circle r="21.453" transform="matrix(-0.844692 -0.535253 -0.535253 0.844692 248.602 112.554)" fill="#62D0B5"/>
<circle r="21.453" transform="matrix(-0.844692 -0.535253 -0.535253 0.844692 741.297 424.758)" fill="#F2F2F4"/>
<circle r="21.453" transform="matrix(-0.844692 -0.535253 -0.535253 0.844692 27.1184 151.683)" fill="#F2F2F4"/>
<circle r="21.453" transform="matrix(-0.844692 -0.535253 -0.535253 0.844692 288.103 318.754)" fill="#F2F2F4"/>
<circle r="21.453" transform="matrix(-0.844692 -0.535253 -0.535253 0.844692 780.798 630.957)" fill="#F2F2F4"/>
<rect width="95.8234" height="42.906" rx="21.453" transform="matrix(-0.844692 -0.535253 -0.535253 0.844692 370.624 164.479)" fill="#F2F2F4"/>
<rect width="180.683" height="43.0001" rx="21.5001" transform="matrix(-0.844692 -0.535253 -0.535253 0.844692 230.501 75.7715)" fill="#417BF6"/>
<rect width="144.927" height="42.906" rx="21.453" transform="matrix(-0.844692 -0.535253 -0.535253 0.844692 917.279 510.877)" fill="#F2F2F4"/>
<rect width="152.793" height="42.906" rx="21.453" transform="matrix(-0.844692 -0.535253 -0.535253 0.844692 461.872 403.467)" fill="#F2C402"/>
<rect width="112.032" height="42.906" rx="21.453" transform="matrix(-0.844692 -0.535253 -0.535253 0.844692 305.564 395.852)" fill="#ED5861"/>
<rect width="147.606" height="43.0001" rx="21.5001" transform="matrix(-0.844692 -0.535253 -0.535253 0.844692 79.2933 252.598)" fill="#F2F2F4"/>
<rect width="128.241" height="42.906" rx="21.453" transform="matrix(-0.844692 -0.535253 -0.535253 0.844692 434.628 477.635)" fill="#417BF6"/>
<rect width="128.241" height="42.906" rx="21.453" transform="matrix(-0.844692 -0.535253 -0.535253 0.844692 755.837 589.744)" fill="#F2F2F4"/>
<rect width="128.241" height="42.906" rx="21.453" transform="matrix(-0.844692 -0.535253 -0.535253 0.844692 155.303 118.621)" fill="#F2F2F4"/>
<rect width="229.07" height="42.906" rx="21.453" transform="matrix(-0.844692 -0.535253 -0.535253 0.844692 267.774 280.475)" fill="#F2C402"/>
<rect width="208.094" height="42.906" rx="21.453" transform="matrix(-0.844692 -0.535253 -0.535253 0.844692 890.841 585.553)" fill="#F2F2F4"/>
<path fill-rule="evenodd" clip-rule="evenodd" d="M1433.36 379.737C1407.43 396.168 1399.72 430.49 1416.14 456.395C1432.55 482.301 1466.88 489.986 1492.81 473.555C1502.87 467.181 1516.19 470.163 1522.56 480.214C1528.92 490.266 1525.93 503.581 1515.88 509.954C1469.83 539.131 1408.87 525.488 1379.71 479.476C1350.56 433.465 1364.25 372.514 1410.3 343.338L1657.82 186.489C1667.88 180.115 1681.2 183.096 1687.57 193.148C1693.94 203.199 1690.95 216.514 1680.89 222.888L1433.36 379.737Z" fill="#62D0B5"/>
<path fill-rule="evenodd" clip-rule="evenodd" d="M1539.94 533.505C1565.88 517.065 1573.6 482.736 1557.19 456.83C1540.77 430.925 1506.44 423.247 1480.49 439.687C1470.43 446.064 1457.11 443.085 1450.74 433.034C1444.37 422.983 1447.36 409.665 1457.43 403.287C1503.49 374.095 1564.48 387.725 1593.63 433.737C1622.79 479.748 1609.07 540.712 1563.01 569.904L1315.34 726.839C1305.28 733.216 1291.96 730.238 1285.59 720.186C1279.22 710.135 1282.21 696.817 1292.28 690.44L1539.94 533.505Z" fill="#ED5861"/>
<path fill-rule="evenodd" clip-rule="evenodd" d="M1839.22 213.991C1865.16 197.551 1899.5 205.229 1915.91 231.134C1932.33 257.04 1924.61 291.369 1898.66 307.809C1888.6 314.186 1885.61 327.504 1891.98 337.555C1898.34 347.607 1911.67 350.585 1921.73 344.208C1967.8 315.016 1981.51 254.052 1952.36 208.041C1923.2 162.029 1862.22 148.399 1816.15 177.592L1568.49 334.527C1558.42 340.904 1555.43 354.222 1561.8 364.273C1568.17 374.325 1581.49 377.303 1591.55 370.926L1839.22 213.991Z" fill="#F2F2F4"/>
<circle cx="1814.58" cy="112.554" r="21.453" transform="rotate(-32.3611 1814.58 112.554)" fill="#62D0B5"/>
<circle cx="1321.88" cy="424.758" r="21.453" transform="rotate(-32.3611 1321.88 424.758)" fill="#F2F2F4"/>
<circle cx="2036.06" cy="151.683" r="21.453" transform="rotate(-32.3611 2036.06 151.683)" fill="#F2F2F4"/>
<circle cx="1775.08" cy="318.754" r="21.453" transform="rotate(-32.3611 1775.08 318.754)" fill="#F2F2F4"/>
<circle cx="1282.38" cy="630.957" r="21.453" transform="rotate(-32.3611 1282.38 630.957)" fill="#F2F2F4"/>
<rect x="1692.56" y="164.479" width="95.8234" height="42.906" rx="21.453" transform="rotate(-32.3611 1692.56 164.479)" fill="#F2F2F4"/>
<rect x="1832.68" y="75.7715" width="180.683" height="43.0001" rx="21.5001" transform="rotate(-32.3611 1832.68 75.7715)" fill="#417BF6"/>
<rect x="1145.9" y="510.877" width="144.927" height="42.906" rx="21.453" transform="rotate(-32.3611 1145.9 510.877)" fill="#F2F2F4"/>
<rect x="1601.31" y="403.467" width="152.793" height="42.906" rx="21.453" transform="rotate(-32.3611 1601.31 403.467)" fill="#F2C402"/>
<rect x="1757.62" y="395.852" width="112.032" height="42.906" rx="21.453" transform="rotate(-32.3611 1757.62 395.852)" fill="#ED5861"/>
<rect x="1983.89" y="252.598" width="147.606" height="43.0001" rx="21.5001" transform="rotate(-32.3611 1983.89 252.598)" fill="#F2F2F4"/>
<rect x="1628.55" y="477.635" width="128.241" height="42.906" rx="21.453" transform="rotate(-32.3611 1628.55 477.635)" fill="#417BF6"/>
<rect x="1307.34" y="589.744" width="128.241" height="42.906" rx="21.453" transform="rotate(-32.3611 1307.34 589.744)" fill="#F2F2F4"/>
<rect x="1907.88" y="118.621" width="128.241" height="42.906" rx="21.453" transform="rotate(-32.3611 1907.88 118.621)" fill="#F2F2F4"/>
<rect x="1795.41" y="280.475" width="229.07" height="42.906" rx="21.453" transform="rotate(-32.3611 1795.41 280.475)" fill="#F2C402"/>
<rect x="1172.34" y="585.553" width="208.094" height="42.906" rx="21.453" transform="rotate(-32.3611 1172.34 585.553)" fill="#F2F2F4"/>
</g>
<defs>
<clipPath id="clip0">
<rect width="2048" height="2048" fill="white"/>
</clipPath>
</defs>
</svg>
