<?xml version="1.0"?>
<svg version="1.1" id="Layer_1" xmlns="http://www.w3.org/2000/svg" x="0" y="0" viewBox="0 0 100 100" xml:space="preserve">
<rect x="15" y="5" width="70" height="86" rx="4" fill="black" fill-opacity="0.25"/>
<path d="M19 10C19 8.34315 17.6569 7 16 7H10C8.34315 7 7 8.34315 7 10V39C7 40.6569 8.34315 42 10 42H16C17.6569 42 19 40.6569 19 39V10Z" fill="#2F2F34"/>
<path d="M93 10C93 8.34315 91.6569 7 90 7H84C82.3431 7 81 8.34315 81 10V39C81 40.6569 82.3431 42 84 42H90C91.6569 42 93 40.6569 93 39V10Z" fill="#2F2F34"/>
<path d="M19 61C19 59.3431 17.6569 58 16 58H10C8.34315 58 7 59.3431 7 61V90C7 91.6569 8.34315 93 10 93H16C17.6569 93 19 91.6569 19 90V61Z" fill="#2F2F34"/>
<path d="M93 61C93 59.3431 91.6569 58 90 58H84C82.3431 58 81 59.3431 81 61V90C81 91.6569 82.3431 93 84 93H90C91.6569 93 93 91.6569 93 90V61Z" fill="#2F2F34"/>
<rect x="15" y="11" width="70" height="78" rx="4" fill="#FEFA56"/>
<path d="M29 52C29 50.3431 30.3431 49 32 49H68C69.6569 49 71 50.3431 71 52V89H29V52Z" fill="#A3A050"/>
<path d="M30 57C30 55.3431 31.3431 54 33 54H67C68.6569 54 70 55.3431 70 57V93H30V57Z" fill="#3E3E4A"/>
<rect x="32" y="70" width="36" height="21" rx="2" fill="#1F1F25"/>
<rect x="34" y="70" width="32" height="15" rx="2" fill="#E2E2E2"/>
</svg>
